<svg xmlns="http://www.w3.org/2000/svg" xmlns:svg="http://www.w3.org/2000/svg" id="svg2" width="48" height="48" version="1.1" viewBox="0 0 48 48"><metadata id="metadata7"/><g id="layer1" transform="translate(0,-1004.3622)"><path style="fill:none;fill-opacity:1;fill-rule:evenodd;stroke:#bfcad3;stroke-width:1;stroke-linecap:butt;stroke-linejoin:miter;stroke-miterlimit:4;stroke-dasharray:none;stroke-opacity:1" id="path3344" d="m 37.527361,1049.7423 c 0.113945,-0.086 -13.559777,-8.4691 -13.417052,-8.4674 0.147661,0 -14.3740825,8.0563 -14.2530699,8.1409 0.1169676,0.082 3.8643569,-15.5132 3.9068599,-15.3769 0.04397,0.141 -12.1038185,-11.181 -12.1469148,-11.0398 -0.041656,0.1365 15.9480808,-1.1186 15.8316238,-1.0361 -0.120485,0.085 6.893511,-14.9665 6.745864,-14.9639 -0.142713,0 5.992099,14.8219 5.877622,14.7366 -0.118437,-0.088 16.364242,1.9312 16.316087,1.7916 -0.04655,-0.1349 -12.24476,10.2791 -12.199053,10.1438 0.04729,-0.1399 3.220146,16.1601 3.338033,16.0712 z"/></g></svg>