<svg xmlns="http://www.w3.org/2000/svg" xmlns:xlink="http://www.w3.org/1999/xlink" width="20" height="20" version="1.1" viewBox="0 0 20 20"><title>acc_history_small</title><desc>Created with Sketch.</desc><defs><polygon id="path-1" points="19.976 .004 19.976 17.559 0 17.559 0 .004 19.976 .004"/></defs><g id="Page-1" fill="none" fill-rule="evenodd" stroke="none" stroke-width="1"><g id="acc_history_small"><g id="Page-1" transform="translate(0.000000, 1.000000)"><g id="Group-3" transform="translate(0.000000, 0.029321)"><mask id="mask-2" fill="#fff"><use xlink:href="#path-1"/></mask><path id="Fill-1" fill="#FFF" d="M11.2363993,0.00439477792 C6.36727181,0.00439477792 2.4969698,3.95416773 2.4969698,8.78164928 L-1.00671147e-05,8.78164928 L3.12123154,12.5433298 L6.2424396,8.78164928 L3.74549329,8.78164928 C3.74549329,4.64378388 7.05394966,1.25828828 11.2363993,1.25828828 C15.418849,1.25828828 18.7273389,4.64378388 18.7273389,8.78164928 C18.7273389,12.919481 15.418849,16.305044 11.2363993,16.305044 L11.2363993,17.5589038 C16.1055268,17.5589038 19.9758289,13.6091308 19.9758289,8.78164928 C19.9758289,3.95416773 16.1055268,0.00439477792 11.2363993,0.00439477792" mask="url(#mask-2)"/></g><polygon id="Fill-4" fill="#FFF" points="10.612 3.795 9.988 3.795 9.988 10.065 14.982 10.065 14.982 8.811 11.236 8.811 11.236 3.795"/></g></g></g></svg>