<svg xmlns="http://www.w3.org/2000/svg" xmlns:xlink="http://www.w3.org/1999/xlink" width="20" height="20" version="1.1" viewBox="0 0 20 20"><title>acc_notes_small</title><desc>Created with Sketch.</desc><g id="Page-1" fill="none" fill-rule="evenodd" stroke="none" stroke-width="1"><g id="acc_notes_small" fill="#FFF"><g id="Page-1" transform="translate(0.000000, 1.000000)"><polygon id="Fill-1" points="19.184 15.217 18.419 15.217 18.419 3.518 .831 3.518 .831 13.708 .066 13.708 .066 2.763 19.184 2.763"/><polygon id="Fill-2" points="19.184 17.104 .066 17.104 .066 13.708 .831 13.708 .831 16.35 18.419 16.35 18.419 13.708 19.184 13.708"/><polygon id="Fill-3" points="6.184 4.65 6.949 4.65 6.949 .121 6.184 .121"/><polygon id="Fill-4" points="12.301 4.65 13.066 4.65 13.066 .121 12.301 .121"/><polygon id="Fill-5" points="3.507 11.066 15.743 11.066 15.743 10.311 3.507 10.311"/><polygon id="Fill-6" points="3.507 8.047 15.743 8.047 15.743 7.292 3.507 7.292"/><polygon id="Fill-7" points="3.507 14.085 15.743 14.085 15.743 13.33 3.507 13.33"/></g></g></g></svg>