<svg xmlns="http://www.w3.org/2000/svg" xmlns:svg="http://www.w3.org/2000/svg" id="svg2985" width="148" height="40" version="1.1"><metadata id="metadata2990"/><g id="layer1" transform="translate(0,8)"><rect style="fill:#fff;stroke:#a1b1be;stroke-width:1;stroke-miterlimit:1;stroke-opacity:1;stroke-dasharray:none;stroke-dashoffset:0;fill-opacity:1;stroke-linejoin:round" id="rect2993" width="31.093" height="31.093" x="4.453" y="-3.547"/><rect id="rect4337" width="31.093" height="31.093" x="40.453" y="-3.547" style="fill:#fff;stroke:#a1b1be;stroke-width:1;stroke-miterlimit:4;stroke-opacity:1;stroke-dasharray:none;stroke-dashoffset:0;fill-opacity:1;stroke-linejoin:round"/><g style="font-size:40px;font-style:normal;font-weight:400;line-height:100%;letter-spacing:0;word-spacing:0;fill:#f08377;fill-opacity:1;stroke:none;font-family:Sans" id="text3782" transform="matrix(0.80735872,0.80735872,-0.80735872,0.80735872,37.221733,-6.3704057)"><path style="font-variant:normal;font-weight:700;font-stretch:normal;text-align:start;line-height:100%;writing-mode:lr-tb;text-anchor:start;fill:#f08377;fill-opacity:1;font-family:Sans;-inkscape-font-specification:Sans Bold" id="path4344" d="m 25.330518,-12.791652 0,10.2343753 10.195312,0 0,4.609375 -10.195312,0 0,10.2343747 -4.648438,0 0,-10.2343747 -10.195312,0 0,-4.609375 10.195312,0 0,-10.2343753 4.648438,0"/></g><rect style="fill:#f6f6f6;stroke:#a1b1be;stroke-width:1;stroke-miterlimit:4;stroke-opacity:1;stroke-dasharray:none;stroke-dashoffset:0;fill-opacity:1;stroke-linejoin:round" id="rect4339" width="31.093" height="31.093" x="76.453" y="-3.547"/><rect id="rect4341" width="31.093" height="31.093" x="112.453" y="-3.547" style="fill:#f6f6f6;stroke:#a1b1be;stroke-width:1;stroke-miterlimit:4;stroke-opacity:1;stroke-dasharray:none;stroke-dashoffset:0;fill-opacity:1;stroke-linejoin:round"/><g id="g4354" transform="matrix(0.80735872,0.80735872,-0.80735872,0.80735872,111.60165,-6.0704057)" style="font-size:40px;font-style:normal;font-weight:400;line-height:100%;letter-spacing:0;word-spacing:0;fill:#f08377;fill-opacity:.33333334;stroke:none;font-family:Sans"><path id="path4356" d="m 23.856625,-11.317759 0,10.2343755 10.195312,0 0,4.609375 -10.195312,0 0,10.2343745 -4.648438,0 0,-10.2343745 -10.1953122,0 0,-4.609375 10.1953122,0 0,-10.2343755 4.648438,0" style="font-variant:normal;font-weight:700;font-stretch:normal;text-align:start;line-height:100%;writing-mode:lr-tb;text-anchor:start;fill:#f08377;fill-opacity:.33333334;font-family:Sans;-inkscape-font-specification:Sans Bold"/></g></g></svg>