<svg xmlns="http://www.w3.org/2000/svg" xmlns:svg="http://www.w3.org/2000/svg" id="svg3786" width="148" height="40" version="1.1"><metadata id="metadata3791"/><g id="layer1" transform="translate(0,8)"><path style="fill:#fff;fill-opacity:1;stroke:#a1b1be;stroke-width:.66486138;stroke-miterlimit:4;stroke-opacity:1;stroke-dasharray:none;stroke-dashoffset:0" id="path3794" d="m 28.219824,19.497547 a 10.537783,10.537783 0 1 1 -21.0755655,0 10.537783,10.537783 0 1 1 21.0755655,0 z" transform="matrix(1.4719122,0,0,1.4719122,-6.0264125,-16.698677)"/><path id="path4358" d="m 28.219824,19.497547 a 10.537783,10.537783 0 1 1 -21.0755655,0 10.537783,10.537783 0 1 1 21.0755655,0 z" transform="matrix(1.4719122,0,0,1.4719122,29.973588,-16.698677)" style="fill:#fff;fill-opacity:1;stroke:#a1b1be;stroke-width:.66486138;stroke-miterlimit:4;stroke-opacity:1;stroke-dasharray:none;stroke-dashoffset:0"/><path id="path3796" d="m 28.219824,19.497547 c 0,5.819857 -4.717926,10.537783 -10.537783,10.537783 -5.819856,0 -10.5377825,-4.717926 -10.5377825,-10.537783 0,-5.819857 4.7179265,-10.5377825 10.5377825,-10.5377825 5.819857,0 10.537783,4.7179255 10.537783,10.5377825 z" transform="matrix(0.75917299,0,0,0.75917299,42.676272,-2.8020112)" style="fill:#f08377;fill-opacity:1;stroke:none"/><path style="fill:#f6f6f6;fill-opacity:1;stroke:#a1b1be;stroke-width:.66486138;stroke-miterlimit:4;stroke-opacity:1;stroke-dasharray:none;stroke-dashoffset:0" id="path4360" d="m 28.219824,19.497547 a 10.537783,10.537783 0 1 1 -21.0755655,0 10.537783,10.537783 0 1 1 21.0755655,0 z" transform="matrix(1.4714078,0,0,1.5045829,65.982507,-17.685268)"/><path id="path4362" d="m 28.219824,19.497547 a 10.537783,10.537783 0 1 1 -21.0755655,0 10.537783,10.537783 0 1 1 21.0755655,0 z" transform="matrix(1.4719122,0,0,1.4719123,101.97359,-16.69868)" style="fill:#f6f6f6;fill-opacity:1;stroke:#a1b1be;stroke-width:.66486138;stroke-miterlimit:4;stroke-opacity:1;stroke-dasharray:none;stroke-dashoffset:0"/><path style="fill:#f08377;fill-opacity:.33333334;stroke:none" id="path4377" d="m 28.219824,19.497547 c 0,5.819857 -4.717926,10.537783 -10.537783,10.537783 -5.819856,0 -10.5377825,-4.717926 -10.5377825,-10.537783 0,-5.819857 4.7179265,-10.5377825 10.5377825,-10.5377825 5.819857,0 10.537783,4.7179255 10.537783,10.5377825 z" transform="matrix(0.75917299,0,0,0.75917299,114.57627,-2.8020112)"/></g></svg>