<svg xmlns="http://www.w3.org/2000/svg" xmlns:xlink="http://www.w3.org/1999/xlink" width="32" height="112" version="1.1" viewBox="0 0 32 112"><title>sb_add</title><desc>Created with Sketch.</desc><g id="Page-1" fill="none" fill-rule="evenodd" stroke="none" stroke-width="1"><g id="sb_add"><ellipse id="Oval-7" cx="16" cy="16" stroke="#F5F5F5" rx="15" ry="15"/><ellipse id="Oval-7" cx="16" cy="56" stroke="#534D64" rx="15" ry="15"/><ellipse id="Oval-7" cx="16" cy="96" stroke="#F08377" rx="15" ry="15"/><polygon id="+" fill="#F08377" points="23.05 97.146 17.87 97.146 17.87 102.718 14.342 102.718 14.342 97.146 9.19 97.146 9.19 94.038 14.342 94.038 14.342 88.494 17.87 88.494 17.87 94.038 23.05 94.038"/><polygon id="+" fill="#534D64" points="23.05 57.146 17.87 57.146 17.87 62.718 14.342 62.718 14.342 57.146 9.19 57.146 9.19 54.038 14.342 54.038 14.342 48.494 17.87 48.494 17.87 54.038 23.05 54.038"/><polygon id="+" fill="#F5F5F5" points="23.05 17.146 17.87 17.146 17.87 22.718 14.342 22.718 14.342 17.146 9.19 17.146 9.19 14.038 14.342 14.038 14.342 8.494 17.87 8.494 17.87 14.038 23.05 14.038"/></g></g></svg>