<svg xmlns="http://www.w3.org/2000/svg" xmlns:xlink="http://www.w3.org/1999/xlink" width="32" height="112" version="1.1" viewBox="0 0 32 112"><title>sb_create_person_form</title><desc>Created with Sketch.</desc><g id="Page-1" fill="none" fill-rule="evenodd" stroke="none" stroke-width="1"><g id="sb_create_person_form"><ellipse id="Oval-7" cx="16" cy="16" stroke="#F5F5F5" rx="15" ry="15"/><ellipse id="Oval-7" cx="16" cy="56" stroke="#534D64" rx="15" ry="15"/><ellipse id="Oval-7" cx="16" cy="96" stroke="#F08377" rx="15" ry="15"/><g id="Page-1" fill="#F08377" transform="translate(6.000000, 86.000000)"><path id="Fill-1" d="M15.1592059,8.68132353 C13.9191765,10.3633824 11.9252941,11.4558824 9.67463235,11.4558824 C7.38038235,11.4558824 5.35352941,10.3209118 4.11908824,8.58213235 C1.71251471,10.2912941 0.139705882,13.0985441 0.139705882,16.2757353 L19,16.2757353 C19,13.1608529 17.4883824,10.3983088 15.1592059,8.68132353 L15.1592059,8.68132353 Z"/><path id="Fill-2" d="M14.1801471,4.85477941 C14.1801471,7.45889706 12.0691912,9.56985294 9.46507353,9.56985294 C6.86095588,9.56985294 4.75,7.45889706 4.75,4.85477941 C4.75,2.25066176 6.86095588,0.139705882 9.46507353,0.139705882 C12.0691912,0.139705882 14.1801471,2.25066176 14.1801471,4.85477941"/></g><g id="Page-1" fill="#534D64" transform="translate(6.000000, 46.000000)"><path id="Fill-1" d="M15.1592059,8.68132353 C13.9191765,10.3633824 11.9252941,11.4558824 9.67463235,11.4558824 C7.38038235,11.4558824 5.35352941,10.3209118 4.11908824,8.58213235 C1.71251471,10.2912941 0.139705882,13.0985441 0.139705882,16.2757353 L19,16.2757353 C19,13.1608529 17.4883824,10.3983088 15.1592059,8.68132353 L15.1592059,8.68132353 Z"/><path id="Fill-2" d="M14.1801471,4.85477941 C14.1801471,7.45889706 12.0691912,9.56985294 9.46507353,9.56985294 C6.86095588,9.56985294 4.75,7.45889706 4.75,4.85477941 C4.75,2.25066176 6.86095588,0.139705882 9.46507353,0.139705882 C12.0691912,0.139705882 14.1801471,2.25066176 14.1801471,4.85477941"/></g><g id="Page-1" fill="#F5F5F5" transform="translate(6.000000, 6.000000)"><path id="Fill-1" d="M15.1592059,8.68132353 C13.9191765,10.3633824 11.9252941,11.4558824 9.67463235,11.4558824 C7.38038235,11.4558824 5.35352941,10.3209118 4.11908824,8.58213235 C1.71251471,10.2912941 0.139705882,13.0985441 0.139705882,16.2757353 L19,16.2757353 C19,13.1608529 17.4883824,10.3983088 15.1592059,8.68132353 L15.1592059,8.68132353 Z"/><path id="Fill-2" d="M14.1801471,4.85477941 C14.1801471,7.45889706 12.0691912,9.56985294 9.46507353,9.56985294 C6.86095588,9.56985294 4.75,7.45889706 4.75,4.85477941 C4.75,2.25066176 6.86095588,0.139705882 9.46507353,0.139705882 C12.0691912,0.139705882 14.1801471,2.25066176 14.1801471,4.85477941"/></g></g></g></svg>