<svg xmlns="http://www.w3.org/2000/svg" xmlns:xlink="http://www.w3.org/1999/xlink" width="32" height="112" version="1.1" viewBox="0 0 32 112"><title>sb_create_contact_vcard</title><desc>Created with Sketch.</desc><defs><rect id="path-1" width="18" height="13" x="7" y="90"/><mask id="mask-2" width="18" height="13" x="0" y="0" fill="#fff" maskContentUnits="userSpaceOnUse" maskUnits="objectBoundingBox"><use xlink:href="#path-1"/></mask><rect id="path-3" width="18" height="13" x="7" y="50"/><mask id="mask-4" width="18" height="13" x="0" y="0" fill="#fff" maskContentUnits="userSpaceOnUse" maskUnits="objectBoundingBox"><use xlink:href="#path-3"/></mask><rect id="path-5" width="18" height="13" x="7" y="10"/><mask id="mask-6" width="18" height="13" x="0" y="0" fill="#fff" maskContentUnits="userSpaceOnUse" maskUnits="objectBoundingBox"><use xlink:href="#path-5"/></mask></defs><g id="Page-1" fill="none" fill-rule="evenodd" stroke="none" stroke-width="1"><g id="sb_create_contact_vcard"><ellipse id="Oval-7" cx="16" cy="16" stroke="#F5F5F5" rx="15" ry="15"/><ellipse id="Oval-7" cx="16" cy="56" stroke="#534D64" rx="15" ry="15"/><ellipse id="Oval-7" cx="16" cy="96" stroke="#F08377" rx="15" ry="15"/><polygon id="+" fill="#F08377" points="20.415 97.253 17.27 97.253 17.27 100.636 15.128 100.636 15.128 97.253 12 97.253 12 95.366 15.128 95.366 15.128 92 17.27 92 17.27 95.366 20.415 95.366"/><use id="Rectangle-2228" stroke="#F08377" stroke-width="2" mask="url(#mask-2)" xlink:href="#path-1"/><polygon id="+" fill="#534D64" points="20.415 57.253 17.27 57.253 17.27 60.636 15.128 60.636 15.128 57.253 12 57.253 12 55.366 15.128 55.366 15.128 52 17.27 52 17.27 55.366 20.415 55.366"/><use id="Rectangle-2228" stroke="#534D64" stroke-width="2" mask="url(#mask-4)" xlink:href="#path-3"/><polygon id="+" fill="#F5F5F5" points="20.415 17.253 17.27 17.253 17.27 20.636 15.128 20.636 15.128 17.253 12 17.253 12 15.366 15.128 15.366 15.128 12 17.27 12 17.27 15.366 20.415 15.366"/><use id="Rectangle-2228" stroke="#F5F5F5" stroke-width="2" mask="url(#mask-6)" xlink:href="#path-5"/></g></g></svg>