<svg xmlns="http://www.w3.org/2000/svg" xmlns:xlink="http://www.w3.org/1999/xlink" width="32" height="112" version="1.1" viewBox="0 0 32 112"><title>sb_import_line_item</title><desc>Created with Sketch.</desc><g id="Page-1" fill="none" fill-rule="evenodd" stroke="none" stroke-width="1"><g id="sb_import_line_item"><ellipse id="Oval-7" cx="16" cy="16" stroke="#F5F5F5" rx="15" ry="15"/><ellipse id="Oval-7" cx="16" cy="56" stroke="#534D64" rx="15" ry="15"/><ellipse id="Oval-7" cx="16" cy="96" stroke="#F08377" rx="15" ry="15"/><polygon id="Triangle-21" fill="#F08377" points="10 92 26 92 18 102" transform="translate(18.000000, 97.000000) rotate(-90.000000) translate(-18.000000, -97.000000)"/><path id="Line" stroke="#F08377" stroke-linecap="square" stroke-width="4" d="M9.0999999,103.1 L9.0999999,90.9000001" transform="translate(9.100000, 97.000000) rotate(-90.000000) translate(-9.100000, -97.000000)"/><polygon id="Triangle-21" fill="#534D64" points="10 52 26 52 18 62" transform="translate(18.000000, 57.000000) rotate(-90.000000) translate(-18.000000, -57.000000)"/><path id="Line" stroke="#534D64" stroke-linecap="square" stroke-width="4" d="M9.0999999,63.0999999 L9.0999999,50.9000001" transform="translate(9.100000, 57.000000) rotate(-90.000000) translate(-9.100000, -57.000000)"/><polygon id="Triangle-21" fill="#F5F5F5" points="10 12 26 12 18 22" transform="translate(18.000000, 17.000000) rotate(-90.000000) translate(-18.000000, -17.000000)"/><path id="Line" stroke="#F5F5F5" stroke-linecap="square" stroke-width="4" d="M9.0999999,23.0999999 L9.0999999,10.9000001" transform="translate(9.100000, 17.000000) rotate(-90.000000) translate(-9.100000, -17.000000)"/></g></g></svg>