<svg xmlns="http://www.w3.org/2000/svg" xmlns:xlink="http://www.w3.org/1999/xlink" width="32" height="112" version="1.1" viewBox="0 0 32 112"><title>sb_quick_radius_map</title><desc>Created with Sketch.</desc><g id="Page-1" fill="none" fill-rule="evenodd" stroke="none" stroke-width="1"><g id="sb_quick_radius_map"><ellipse id="Oval-7" cx="16" cy="16" stroke="#F5F5F5" rx="15" ry="15"/><ellipse id="Oval-7" cx="16" cy="56" stroke="#534D64" rx="15" ry="15"/><ellipse id="Oval-7" cx="16" cy="96" stroke="#F08377" rx="15" ry="15"/><g id="Group-34" fill="#F08377" transform="translate(4.000000, 84.000000)"><g id="Page-1" transform="translate(13.935029, 13.435029) rotate(45.000000) translate(-13.935029, -13.435029) translate(6.935029, 1.435029)"><path id="Fill-19" d="M13.9583684,0.0475263158 C12.2124211,3.09289474 9.87257895,5.54915789 8.06510526,8.53410526 L13.2517368,8.53410526 C13.5177368,9.08378947 12.6976316,9.95326316 12.3089474,10.4207895 C8.84210526,14.5699474 4.16205263,19.2573684 0.755631579,23.625 C1.50094737,20.4388947 3.71,16.6784211 4.99947368,13.2502632 L0.049,13.2502632 C1.65642105,8.806 3.52431579,4.62110526 4.99947368,0.0475263158 L13.9583684,0.0475263158 L13.9583684,0.0475263158 Z"/></g><polygon id="Path-3988" points="20.415 3.12 23.296 2 24.678 4.403 25.461 6.645 25.2 8.916 22.1 8.133 19.5 5.566"/></g><g id="Group-34" fill="#534D64" transform="translate(4.000000, 44.000000)"><g id="Page-1" transform="translate(13.935029, 13.435029) rotate(45.000000) translate(-13.935029, -13.435029) translate(6.935029, 1.435029)"><path id="Fill-19" d="M13.9583684,0.0475263158 C12.2124211,3.09289474 9.87257895,5.54915789 8.06510526,8.53410526 L13.2517368,8.53410526 C13.5177368,9.08378947 12.6976316,9.95326316 12.3089474,10.4207895 C8.84210526,14.5699474 4.16205263,19.2573684 0.755631579,23.625 C1.50094737,20.4388947 3.71,16.6784211 4.99947368,13.2502632 L0.049,13.2502632 C1.65642105,8.806 3.52431579,4.62110526 4.99947368,0.0475263158 L13.9583684,0.0475263158 L13.9583684,0.0475263158 Z"/></g><polygon id="Path-3988" points="20.415 3.12 23.296 2 24.678 4.403 25.461 6.645 25.2 8.916 22.1 8.133 19.5 5.566"/></g><g id="Group-34" fill="#F5F5F5" transform="translate(4.000000, 4.000000)"><g id="Page-1" transform="translate(13.935029, 13.435029) rotate(45.000000) translate(-13.935029, -13.435029) translate(6.935029, 1.435029)"><path id="Fill-19" d="M13.9583684,0.0475263158 C12.2124211,3.09289474 9.87257895,5.54915789 8.06510526,8.53410526 L13.2517368,8.53410526 C13.5177368,9.08378947 12.6976316,9.95326316 12.3089474,10.4207895 C8.84210526,14.5699474 4.16205263,19.2573684 0.755631579,23.625 C1.50094737,20.4388947 3.71,16.6784211 4.99947368,13.2502632 L0.049,13.2502632 C1.65642105,8.806 3.52431579,4.62110526 4.99947368,0.0475263158 L13.9583684,0.0475263158 L13.9583684,0.0475263158 Z"/></g><polygon id="Path-3988" points="20.415 3.12 23.296 2 24.678 4.403 25.461 6.645 25.2 8.916 22.1 8.133 19.5 5.566"/></g></g></g></svg>