<svg xmlns="http://www.w3.org/2000/svg" xmlns:xlink="http://www.w3.org/1999/xlink" width="32" height="112" version="1.1" viewBox="0 0 32 112"><title>sb_role_management</title><desc>Created with Sketch.</desc><g id="Page-1" fill="none" fill-rule="evenodd" stroke="none" stroke-width="1"><g id="sb_role_management"><ellipse id="Oval-7" cx="16" cy="16" stroke="#F5F5F5" rx="15" ry="15"/><ellipse id="Oval-7" cx="16" cy="56" stroke="#534D64" rx="15" ry="15"/><ellipse id="Oval-7" cx="16" cy="96" stroke="#F08377" rx="15" ry="15"/><path id="Page-1" fill="#F08377" d="M26.0100002,98.7926358 L23.4300554,98.7926358 L23.4300554,93.2594003 C23.4300554,91.4596235 21.9707156,90 20.1709389,90 L12.8390614,90 C11.0392846,90 9.5810796,91.4596235 9.5810796,93.2594003 L9.5810796,98.7926358 L7,98.7926358 L7,100.319779 L26.0100002,100.319779 L26.0100002,98.7926358 Z"/><path id="Page-1" fill="#534D64" d="M26.0100002,58.7926358 L23.4300554,58.7926358 L23.4300554,53.2594003 C23.4300554,51.4596235 21.9707156,50 20.1709389,50 L12.8390614,50 C11.0392846,50 9.5810796,51.4596235 9.5810796,53.2594003 L9.5810796,58.7926358 L7,58.7926358 L7,60.3197793 L26.0100002,60.3197793 L26.0100002,58.7926358 Z"/><path id="Page-1" fill="#F5F5F5" d="M26.0100002,18.7926358 L23.4300554,18.7926358 L23.4300554,13.2594003 C23.4300554,11.4596235 21.9707156,10 20.1709389,10 L12.8390614,10 C11.0392846,10 9.5810796,11.4596235 9.5810796,13.2594003 L9.5810796,18.7926358 L7,18.7926358 L7,20.3197793 L26.0100002,20.3197793 L26.0100002,18.7926358 Z"/></g></g></svg>