<svg xmlns="http://www.w3.org/2000/svg" xmlns:xlink="http://www.w3.org/1999/xlink" width="32" height="112" version="1.1" viewBox="0 0 32 112"><title>sb_security_suite_settings</title><desc>Created with Sketch.</desc><g id="Page-1" fill="none" fill-rule="evenodd" stroke="none" stroke-width="1"><g id="sb_security_suite_settings"><ellipse id="Oval-7" cx="16" cy="16" stroke="#F5F5F5" rx="15" ry="15"/><ellipse id="Oval-7" cx="16" cy="56" stroke="#534D64" rx="15" ry="15"/><ellipse id="Oval-7" cx="16" cy="96" stroke="#F08377" rx="15" ry="15"/><g id="Page-1" fill="#F08377" transform="translate(8.000000, 87.000000)"><polygon id="Fill-1" points="9.703 .08 7.297 .08 7.297 3.689 6.094 3.689 6.094 6.094 7.297 6.094 7.297 16.92 9.703 16.92 9.703 6.094 10.906 6.094 10.906 3.689 9.703 3.689"/><polygon id="Fill-2" points="3.689 .08 1.283 .08 1.283 12.108 .08 12.108 .08 14.514 1.283 14.514 1.283 16.92 3.689 16.92 3.689 14.514 4.892 14.514 4.892 12.108 3.689 12.108"/><polygon id="Fill-3" points="15.717 8.5 15.717 .08 13.311 .08 13.311 8.5 12.108 8.5 12.108 10.906 13.311 10.906 13.311 16.92 15.717 16.92 15.717 10.906 16.92 10.906 16.92 8.5"/></g><g id="Page-1" fill="#534D64" transform="translate(8.000000, 47.000000)"><polygon id="Fill-1" points="9.703 .08 7.297 .08 7.297 3.689 6.094 3.689 6.094 6.094 7.297 6.094 7.297 16.92 9.703 16.92 9.703 6.094 10.906 6.094 10.906 3.689 9.703 3.689"/><polygon id="Fill-2" points="3.689 .08 1.283 .08 1.283 12.108 .08 12.108 .08 14.514 1.283 14.514 1.283 16.92 3.689 16.92 3.689 14.514 4.892 14.514 4.892 12.108 3.689 12.108"/><polygon id="Fill-3" points="15.717 8.5 15.717 .08 13.311 .08 13.311 8.5 12.108 8.5 12.108 10.906 13.311 10.906 13.311 16.92 15.717 16.92 15.717 10.906 16.92 10.906 16.92 8.5"/></g><g id="Page-1" fill="#F5F5F5" transform="translate(8.000000, 7.000000)"><polygon id="Fill-1" points="9.703 .08 7.297 .08 7.297 3.689 6.094 3.689 6.094 6.094 7.297 6.094 7.297 16.92 9.703 16.92 9.703 6.094 10.906 6.094 10.906 3.689 9.703 3.689"/><polygon id="Fill-2" points="3.689 .08 1.283 .08 1.283 12.108 .08 12.108 .08 14.514 1.283 14.514 1.283 16.92 3.689 16.92 3.689 14.514 4.892 14.514 4.892 12.108 3.689 12.108"/><polygon id="Fill-3" points="15.717 8.5 15.717 .08 13.311 .08 13.311 8.5 12.108 8.5 12.108 10.906 13.311 10.906 13.311 16.92 15.717 16.92 15.717 10.906 16.92 10.906 16.92 8.5"/></g></g></g></svg>