<svg xmlns="http://www.w3.org/2000/svg" xmlns:xlink="http://www.w3.org/1999/xlink" width="32" height="112" version="1.1" viewBox="0 0 32 112"><title>sb_today</title><desc>Created with Sketch.</desc><g id="Page-1" fill="none" fill-rule="evenodd" stroke="none" stroke-width="1"><g id="sb_today"><ellipse id="Oval-7" cx="16" cy="16" stroke="#F5F5F5" rx="15" ry="15"/><ellipse id="Oval-7" cx="16" cy="56" stroke="#534D64" rx="15" ry="15"/><ellipse id="Oval-7" cx="16" cy="96" stroke="#F08377" rx="15" ry="15"/><polygon id="Page-1" fill="#F08377" points="16.08 84.847 18.455 92.167 26.16 92.167 19.92 96.68 22.295 104 16.08 99.487 9.84 104 12.215 96.68 6 92.167 13.68 92.167"/><polygon id="Page-1" fill="#534D64" points="16.08 44.847 18.455 52.167 26.16 52.167 19.92 56.68 22.295 64 16.08 59.487 9.84 64 12.215 56.68 6 52.167 13.68 52.167"/><polygon id="Page-1" fill="#F5F5F5" points="16.08 4.847 18.455 12.167 26.16 12.167 19.92 16.68 22.295 24 16.08 19.487 9.84 24 12.215 16.68 6 12.167 13.68 12.167"/></g></g></svg>