<svg xmlns="http://www.w3.org/2000/svg" xmlns:xlink="http://www.w3.org/1999/xlink" width="32" height="112" version="1.1" viewBox="0 0 32 112"><title>sb_view_process_audit</title><desc>Created with Sketch.</desc><g id="Page-1" fill="none" fill-rule="evenodd" stroke="none" stroke-width="1"><g id="sb_view_process_audit"><ellipse id="Oval-7" cx="16" cy="16" stroke="#F5F5F5" rx="15" ry="15"/><path id="Page-1" fill="#F5F5F5" d="M16.5,5 L16.5,26 L19.125,26 L19.125,5 L16.5,5 Z M11.25,7.625 L11.25,23.375 L13.875,23.375 L13.875,7.625 L11.25,7.625 Z M21.75,10.25 L21.75,20.75 L24.375,20.75 L24.375,10.25 L21.75,10.25 Z M6,12.875 L6,18.125 L8.625,18.125 L8.625,12.875 L6,12.875 Z"/><ellipse id="Oval-7" cx="16" cy="56" stroke="#534D64" rx="15" ry="15"/><path id="Page-1" fill="#534D64" d="M16.5,45 L16.5,66 L19.125,66 L19.125,45 L16.5,45 Z M11.25,47.625 L11.25,63.375 L13.875,63.375 L13.875,47.625 L11.25,47.625 Z M21.75,50.25 L21.75,60.75 L24.375,60.75 L24.375,50.25 L21.75,50.25 Z M6,52.875 L6,58.125 L8.625,58.125 L8.625,52.875 L6,52.875 Z"/><ellipse id="Oval-7" cx="16" cy="96" stroke="#F08377" rx="15" ry="15"/><path id="Page-1" fill="#F08377" d="M16.5,85 L16.5,106 L19.125,106 L19.125,85 L16.5,85 Z M11.25,87.625 L11.25,103.375 L13.875,103.375 L13.875,87.625 L11.25,87.625 Z M21.75,90.25 L21.75,100.75 L24.375,100.75 L24.375,90.25 L21.75,90.25 Z M6,92.875 L6,98.125 L8.625,98.125 L8.625,92.875 L6,92.875 Z"/></g></g></svg>