<svg xmlns="http://www.w3.org/2000/svg" xmlns:xlink="http://www.w3.org/1999/xlink" width="30" height="30" version="1.1" viewBox="0 0 30 30"><title>acc_activities</title><desc>Created with Sketch.</desc><g id="Page-1" fill="none" fill-rule="evenodd" stroke="none" stroke-width="1"><g id="acc_activities" fill="#778591"><g id="Page-1" transform="translate(2.000000, 8.000000)"><path id="Fill-1" d="M25.475416,0.515412355 C24.8113004,-0.171780695 23.742875,-0.171780695 23.0787593,0.515412355 L16.3507743,7.50705328 L12.0194459,3.02521544 L9.62274067,0.54527722 L7.22608396,3.02521544 L0.498098881,9.9870417 C-0.166016791,10.6742347 -0.166016791,11.7797367 0.498098881,12.4669799 C1.16221455,13.154173 2.23063993,13.154173 2.8947556,12.4669799 L9.62274067,5.50520386 L13.954069,9.9870417 L16.3507743,12.4669799 L18.747431,9.9870417 L25.475416,2.99535058 C26.1395317,2.30815753 26.1395317,1.20260541 25.475416,0.515412355"/><path id="Fill-3" d="M21.3173224,10.1662811 C21.3173224,11.4369181 22.312841,12.4669799 23.540759,12.4669799 C24.7686769,12.4669799 25.7641955,11.4369181 25.7641955,10.1662811 C25.7641955,8.89564402 24.7686769,7.86563243 23.540759,7.86563243 C22.312841,7.86563243 21.3173224,8.89564402 21.3173224,10.1662811 Z"/></g></g></g></svg>