<svg xmlns="http://www.w3.org/2000/svg" xmlns:xlink="http://www.w3.org/1999/xlink" width="30" height="30" version="1.1" viewBox="0 0 30 30"><title>my_pdf_templates_dark</title><desc>Created with Sketch.</desc><g id="Page-1" fill="none" fill-rule="evenodd" stroke="none" stroke-width="1"><g id="my_pdf_templates_dark" fill="#778591"><g id="Page-1" transform="translate(4.000000, 1.000000)"><polygon id="Fill-1" points="11.29 16.442 21.924 5.806 21.924 4.336 20.991 3.403 7.951 16.442"/><polygon id="Fill-2" points="6.715 16.442 20.373 2.785 18.704 1.116 3.378 16.442"/><polygon id="Fill-3" points="21.924 11.616 17.098 16.442 21.924 16.442"/><polygon id="Fill-4" points="21.924 7.043 12.525 16.442 15.862 16.442 21.924 10.381"/><polygon id="Fill-5" points="6.098 0 .076 6.023 .076 9.36 9.436 0"/><polygon id="Fill-6" points="18.086 .498 17.588 0 15.246 0 .076 15.17 .076 16.442 2.141 16.442"/><polygon id="Fill-7" points=".076 0 .076 4.786 4.862 0"/><polygon id="Fill-8" points="10.672 0 .076 10.597 .076 13.933 14.009 0"/><path id="Fill-9" d="M11.8214576,21.481322 C11.7136949,21.3795254 11.578339,21.3109153 11.4120339,21.2747458 C11.2882373,21.2467797 11.0466102,21.2322373 10.6852881,21.2322373 L10.2877966,21.2322373 L10.2877966,24.1325085 L10.9474237,24.1325085 C11.1950169,24.1325085 11.3728814,24.1179661 11.4821356,24.09 C11.6249492,24.0538305 11.7442712,23.9941695 11.8389831,23.9080339 C11.9336949,23.8222712 12.0108814,23.6824407 12.0720339,23.4855593 C12.1316949,23.2905424 12.1622712,23.0224407 12.1622712,22.6831186 C12.1622712,22.3437966 12.1331864,22.0846441 12.0720339,21.9023051 C12.0123729,21.723322 11.9292203,21.582 11.8214576,21.481322 L11.8214576,21.481322 Z"/><path id="Fill-10" d="M7.27566102,21.2628136 C7.16938983,21.2441695 6.9579661,21.2337288 6.63915254,21.2337288 L6.21220339,21.2337288 L6.21220339,22.4761695 L6.69583051,22.4761695 C7.04410169,22.4761695 7.27864407,22.4530508 7.39498305,22.4079322 C7.51169492,22.3628136 7.60491525,22.2912203 7.67166102,22.1924068 C7.73877966,22.0947119 7.77233898,21.9809831 7.77233898,21.8527119 C7.77233898,21.6927458 7.72572881,21.5614915 7.63101695,21.4582034 C7.53779661,21.3534237 7.41847458,21.2877966 7.27566102,21.2628136 L7.27566102,21.2628136 Z"/><path id="Fill-11" d="M21.9243051,17.3158644 L0.0756949153,17.3158644 L0.0756949153,27.9661017 L21.9243051,27.9661017 L21.9243051,17.3158644 Z M8.53562712,22.518678 C8.4379322,22.7021356 8.31413559,22.8449492 8.16423729,22.9497288 C8.0139661,23.0530169 7.86108475,23.1231186 7.70522034,23.156678 C7.49416949,23.1988136 7.1880339,23.219322 6.78905085,23.219322 L6.21220339,23.219322 L6.21220339,24.8723051 L5.32661017,24.8723051 L5.32661017,20.4924407 L6.74542373,20.4924407 C7.28274576,20.4924407 7.634,20.5144407 7.79694915,20.5580678 C8.04752542,20.6236949 8.25745763,20.7661356 8.42786441,20.9861356 C8.59677966,21.2061356 8.68254237,21.4902712 8.68254237,21.839661 C8.68254237,22.1077627 8.63294915,22.3348475 8.53562712,22.518678 L8.53562712,22.518678 Z M12.9415932,23.6559661 C12.832339,23.973661 12.6764746,24.231322 12.4725085,24.4296949 C12.3181356,24.5795932 12.1111864,24.6959322 11.8505424,24.7790847 C11.6555254,24.8402373 11.3948814,24.8708136 11.0671186,24.8708136 L9.40369492,24.8708136 L9.40369492,20.4909492 L11.0190169,20.4909492 C11.3829492,20.4909492 11.6611186,20.5185424 11.8520339,20.5755932 C12.1085763,20.6512881 12.3296949,20.7851525 12.5135254,20.9790508 C12.6954915,21.1725763 12.835322,21.4086102 12.9315254,21.6882712 C13.0277288,21.9694237 13.0739661,22.3132203 13.0739661,22.7237627 C13.0769492,23.0835932 13.030339,23.395322 12.9415932,23.6559661 L12.9415932,23.6559661 Z M16.8348475,21.2337288 L14.7172542,21.2337288 L14.7172542,22.2710847 L16.5451186,22.2710847 L16.5451186,23.0123729 L14.7172542,23.0123729 L14.7172542,24.8723051 L13.831661,24.8723051 L13.831661,20.4924407 L16.8348475,20.4924407 L16.8348475,21.2337288 Z"/></g></g></g></svg>