<svg xmlns="http://www.w3.org/2000/svg" xmlns:xlink="http://www.w3.org/1999/xlink" width="28" height="28" version="1.1" viewBox="0 0 28 28"><title>admin_campaign_email_settings</title><desc>Created with Sketch.</desc><g id="Page-1" fill="none" fill-rule="evenodd" stroke="none" stroke-width="1"><g id="admin_campaign_email_settings"><circle id="Oval-7" cx="14" cy="14" r="13" stroke="#534D64"/><g id="Page-1" fill="#534D64" transform="translate(6.000000, 6.000000)"><polygon id="Fill-1" points="9.132 .075 6.868 .075 6.868 3.472 5.736 3.472 5.736 5.736 6.868 5.736 6.868 15.925 9.132 15.925 9.132 5.736 10.264 5.736 10.264 3.472 9.132 3.472"/><polygon id="Fill-2" points="3.472 .075 1.208 .075 1.208 11.396 .075 11.396 .075 13.66 1.208 13.66 1.208 15.925 3.472 15.925 3.472 13.66 4.604 13.66 4.604 11.396 3.472 11.396"/><polygon id="Fill-3" points="14.792 8 14.792 .075 12.528 .075 12.528 8 11.396 8 11.396 10.264 12.528 10.264 12.528 15.925 14.792 15.925 14.792 10.264 15.925 10.264 15.925 8"/></g></g></g></svg>