<svg xmlns="http://www.w3.org/2000/svg" xmlns:svg="http://www.w3.org/2000/svg" id="svg2" width="28" height="28" version="1.1" viewBox="0 0 28 28"><title id="title4">admin_inbound_email</title><desc id="desc6">Created with Sketch.</desc><metadata id="metadata17"/><g id="g3034"><g id="g3026"><g id="g3019"><g id="g3013"><g id="Page-1" style="fill:none;stroke:none"><g id="admin_inbound_email"><circle id="Oval-7" cx="14" cy="14" r="13" style="stroke:#534d64"/><path id="path13" d="M 16.815653,15.12352 13.8,12.107866 10.784347,15.12352 C 10.550001,15.357867 9.6278667,14.434 9.8608267,14.2 l 3.4843463,-3.484347 c 0.299173,-0.299174 0.610481,-0.299174 0.909654,0 L 17.739173,14.2 C 17.97352,14.434 17.05,15.35648 16.815653,15.12352 z M 20.95,6.4 6.65,6.4 C 6,6.4 6,6.38648 6,7.05 L 6,20.7 C 6,22 6,22 7.3,22 l 13,0 c 1.3,0 1.3,0 1.3,-1.3 l 0,-13.65 c 0,-0.66352 0,-0.65 -0.65,-0.65 z m -0.65,1.3 0,10.4 -3.470827,0 c -0.324826,0 -0.48048,0.27352 -0.545653,0.40352 -0.689173,1.04 -1.611307,1.378693 -2.48352,1.378693 -0.884347,0 -1.794347,-0.350826 -2.48352,-1.378693 C 11.212133,18.308693 11.095653,18.1 10.78296,18.1 l -3.4843467,0 0,-10.4 z" style="fill:#534d64"/></g></g></g></g></g></g></svg>