<svg xmlns="http://www.w3.org/2000/svg" xmlns:xlink="http://www.w3.org/1999/xlink" width="30" height="30" version="1.1" viewBox="0 0 30 30"><title>acc_history</title><desc>Created with Sketch.</desc><defs><polygon id="path-1" points="25.969 .006 25.969 22.827 0 22.827 0 .006 25.969 .006"/></defs><g id="Page-1" fill="none" fill-rule="evenodd" stroke="none" stroke-width="1"><g id="acc_history"><g id="Page-1" transform="translate(2.000000, 4.000000)"><g id="Group-3" transform="translate(0.000000, 0.038117)"><mask id="mask-2" fill="#fff"><use xlink:href="#path-1"/></mask><path id="Fill-1" fill="#778591" d="M14.6073191,0.0057132113 C8.27745336,0.0057132113 3.24606074,5.14041805 3.24606074,11.4161441 L-1.30872491e-05,11.4161441 L4.05760101,16.3063287 L8.11517148,11.4161441 L4.86914128,11.4161441 C4.86914128,6.03691904 9.17013456,1.63577476 14.6073191,1.63577476 C20.0445037,1.63577476 24.3455406,6.03691904 24.3455406,11.4161441 C24.3455406,16.7953253 20.0445037,21.1965572 14.6073191,21.1965572 L14.6073191,22.8265749 C20.9371849,22.8265749 25.9685775,17.6918701 25.9685775,11.4161441 C25.9685775,5.14041805 20.9371849,0.0057132113 14.6073191,0.0057132113" mask="url(#mask-2)"/></g><polygon id="Fill-4" fill="#778591" points="13.796 4.934 12.984 4.934 12.984 13.084 19.476 13.084 19.476 11.454 14.607 11.454 14.607 4.934"/></g></g></g></svg>