<svg xmlns="http://www.w3.org/2000/svg" xmlns:xlink="http://www.w3.org/1999/xlink" width="28" height="28" version="1.1" viewBox="0 0 28 28"><title>admin_geocoding_test</title><desc>Created with Sketch.</desc><g id="Page-1" fill="none" fill-rule="evenodd" stroke="none" stroke-width="1"><g id="admin_geocoding_test"><circle id="Oval-7" cx="14" cy="14" r="13" stroke="#534D64"/><g id="Page-1" fill="#534D64" transform="translate(4.000000, 4.000000)"><polygon id="Fill-1" points="3.541 14.208 1.859 12.529 7.474 12.529 7.474 18.141 5.793 16.461 2.254 20 0 17.748"/><polygon id="Fill-2" points="17.749 20 20 17.748 16.461 14.208 18.141 12.529 12.53 12.529 12.529 18.141 14.208 16.461"/><polygon id="Fill-3" points="20 2.252 17.749 0 14.208 3.542 12.529 1.862 12.529 7.472 18.142 7.474 16.459 5.792"/><polygon id="Fill-4" points="1.861 7.474 7.472 7.474 7.475 1.859 5.794 3.542 2.254 0 0 2.255 3.541 5.792"/><path id="Fill-5" d="M10,7.55733333 C8.65093333,7.55733333 7.55733333,8.65093333 7.55733333,10 C7.55733333,11.352 8.65093333,12.4458667 10,12.4458667 C11.3490667,12.4458667 12.4437333,11.352 12.4437333,10 C12.4437333,8.65093333 11.3490667,7.55733333 10,7.55733333 L10,7.55733333 Z"/></g></g></g></svg>