<svg xmlns="http://www.w3.org/2000/svg" xmlns:xlink="http://www.w3.org/1999/xlink" width="28" height="28" version="1.1" viewBox="0 0 28 28"><title>admin_password_management</title><desc>Created with Sketch.</desc><g id="Page-1" fill="none" fill-rule="evenodd" stroke="none" stroke-width="1"><g id="admin_password_management"><circle id="Oval-7" cx="14" cy="14" r="13" stroke="#534D64"/><g id="Page-1" fill="#5C566C" transform="translate(6.000000, 12.000000)"><polygon id="Fill-1" points="1.995 .063 3.084 .063 2.908 1.982 4.662 1.232 5.014 2.311 3.189 2.75 4.434 4.194 3.504 4.852 2.521 3.225 1.556 4.852 .679 4.194 1.942 2.768 .1 2.293 .469 1.232 2.189 1.982"/><polygon id="Fill-2" points="7.329 .063 8.418 .063 8.243 1.982 9.996 1.232 10.348 2.311 8.523 2.75 9.769 4.194 8.839 4.852 7.855 3.225 6.891 4.852 6.014 4.194 7.276 2.768 5.435 2.293 5.803 1.232 7.523 1.982"/><polygon id="Fill-3" points="12.664 .063 13.753 .063 13.576 1.982 15.331 1.232 15.683 2.311 13.858 2.75 15.102 4.194 14.174 4.852 13.19 3.225 12.225 4.852 11.348 4.194 12.611 2.768 10.769 2.293 11.138 1.232 12.858 1.982"/></g></g></g></svg>