<svg xmlns="http://www.w3.org/2000/svg" xmlns:svg="http://www.w3.org/2000/svg" id="svg2" width="30" height="30" version="1.1" viewBox="0 0 30 30"><metadata id="metadata15"/><title id="title4">suite_spots_small</title><desc id="desc6">Created with Sketch.</desc><g id="Page-1" transform="matrix(1.4108885,0,0,1.4108885,1.4869988,0.85002568)" style="fill:#778591;fill-opacity:1;fill-rule:evenodd;stroke:none"><g id="suite_spots_small" style="fill:#778591;fill-opacity:1"><path id="Page-1-Copy-3" d="M 9.57296,0.2 1,5.0411733 1,15.162347 9.57296,20 l 8.582347,-4.838827 0,-10.1199997 L 9.57296,0.2 z M 10.01648,1.9658667 16.401173,5.56712 12.94512,7.6054933 10.01648,5.95432 l 0,-3.9884533 z m -0.44,7.6254933 1.921627,-1.13344 c 0.20856,-0.1237867 0.479013,-0.05368 0.6028,0.1560533 0.123493,0.20944 0.05368,0.47872 -0.156054,0.6025067 l -1.928373,1.13784 0,2.224053 c 0,0.24288 -0.19712,0.44 -0.44,0.44 -0.24288,0 -0.44,-0.19712 -0.44,-0.44 l 0,-2.225226 L 7.2081067,9.2153067 C 6.9983733,9.09152 6.9297333,8.8225333 7.0523467,8.6128 7.17584,8.4030667 7.44512,8.3341333 7.6548533,8.4567467 L 9.57648,9.59136 z m -0.44,-7.6290133 0,3.9864 -2.9298133,1.6544 L 2.75296,5.56712 9.13648,1.9623467 z M 2.32,6.3324267 5.3219733,8.1026933 2.32,9.7975733 2.32,6.3324267 z M 16.835307,14.39 9.57648,18.461173 2.32,14.39 l 0,-0.790533 7.25296,3.981706 7.262347,-4.11928 0,0.928107 z m 0,-2.160987 -7.262347,4.03216 -7.25296,-4.030986 0,-0.941894 7.25296,4.094054 7.262347,-4.095227 0,0.941893 z m 0,-2.4302663 -3.005494,-1.69488 3.005494,-1.7726134 0,3.4674934 z" style="fill:#778591;fill-opacity:1"/></g></g></svg>