<svg xmlns="http://www.w3.org/2000/svg" xmlns:svg="http://www.w3.org/2000/svg" id="svg2" width="30" height="30" version="1.1" viewBox="0 0 30 30"><metadata id="metadata22"/><title id="title4">opps_lead_source_outcome_dark</title><desc id="desc6">Created with Sketch.</desc><g id="Page-1" transform="matrix(1.5498982,0,0,1.5498982,-0.6261005,-0.37186322)" style="fill:none;stroke:none"><g id="opps_lead_source_outcome_dark" style="fill:#778591"><g id="Page-1-Copy" transform="translate(1,1)"><polygon id="Fill-1" points=".139 17.861 .139 .139 .909 .139 .909 17.091 17.861 17.091 17.861 17.861"/><polygon id="Fill-2" points="2.419 11.073 2.419 14.309 15.519 14.309 15.519 11.073"/><polygon id="Fill-4" points="2.419 6.527 2.419 9.763 10.895 9.763 10.895 6.527"/><polygon id="Fill-6" points="2.419 1.942 2.419 5.178 6.272 5.178 6.272 1.942"/><polygon id="Fill-8" points="13.161 15.935 13.161 17.476 13.932 17.476 13.932 15.935"/><polygon id="Fill-9" points="8.807 15.935 8.807 17.476 9.578 17.476 9.578 15.935"/><polygon id="Fill-10" points="4.492 15.935 4.492 17.476 5.263 17.476 5.263 15.935"/></g></g></g></svg>