<svg xmlns="http://www.w3.org/2000/svg" xmlns:svg="http://www.w3.org/2000/svg" id="svg2" width="30" height="30" version="1.1" viewBox="0 0 30 30"><metadata id="metadata22"/><title id="title4">campaign_roi_dark</title><desc id="desc6">Created with Sketch.</desc><g id="Page-1" transform="matrix(1.5641034,0,0,1.5641034,-0.63490965,-0.64756429)" style="fill:none;stroke:none"><g id="campaign_roi_dark" style="fill:#778591"><g id="Page-1-Copy-5" transform="translate(1,1)"><path id="Fill-1" d="m 17.5248,17.8752 -17.0496,0 c -0.19968,0 -0.34968,-0.15 -0.34968,-0.34968 l 0,-17.05032 c 0,-0.19968 0.15,-0.34968 0.34968,-0.34968 0.19968,0 0.34992,0.15 0.34992,0.34968 l 0,16.5 c 0,0.10032 0.07488,0.17544 0.1752,0.17544 l 16.5,0 c 0.19968,0 0.34968,0.15 0.34968,0.34968 0.0252,0.22488 -0.1248,0.37488 -0.3252,0.37488 l 0,0 z"/><path id="Fill-2" d="m 4.0126262,15.46888 -1.6553129,0 C 2.2390767,15.46888 2.16,15.348698 2.16,15.227824 l 0,-3.466768 C 2.16,11.616607 2.2583729,11.52 2.3573133,11.52 l 1.6553129,0 c 0.1182366,0 0.1973133,0.11995 0.1973133,0.241056 l 0,3.442269 C 4.209372,15.348698 4.1308628,15.46888 4.0126262,15.46888 l 0,0 z"/><path id="Fill-3" d="m 6.652437,15.5448 -1.6553129,0 C 4.8790767,15.5448 4.8,15.446176 4.8,15.346983 L 4.8,4.757627 C 4.8,4.6392784 4.8981837,4.56 4.9971241,4.56 l 1.6553129,0 c 0.1184259,0 0.1973133,0.098434 0.1973133,0.197627 l 0,10.589356 c 0,0.09919 -0.09894,0.197817 -0.1973133,0.197817 l 0,0 z"/><path id="Fill-4" d="m 9.2926262,15.452529 -1.6553129,0 C 7.5190767,15.452529 7.44,15.332348 7.44,15.211474 l 0,-6.0904181 C 7.44,8.9766073 7.5381837,8.88 7.6373133,8.88 l 1.6553129,0 c 0.1182366,0 0.1971241,0.1201813 0.1971241,0.2410559 l 0,6.0911111 c 0,0.120181 -0.098184,0.240362 -0.1971241,0.240362 l 0,0 z"/><path id="Fill-5" d="m 11.932626,15.6336 -1.655313,0 C 10.159077,15.6336 10.08,15.486808 10.08,15.339169 l 0,-12.6447377 C 10.08,2.5179984 10.178373,2.4 10.277313,2.4 l 1.655313,0 c 0.118237,0 0.197314,0.1465099 0.197314,0.2944313 l 0,12.6447377 c 0.0193,0.147639 -0.07908,0.294431 -0.197314,0.294431 l 0,0 z"/><path id="path18" d="m 14.572626,15.6336 -1.655313,0 C 12.799077,15.6336 12.72,15.5507 12.72,15.467322 l 0,-7.1410436 C 12.72,8.2266389 12.818373,8.16 12.917313,8.16 l 1.655313,0 c 0.118237,0 0.197314,0.082741 0.197314,0.1662784 l 0,7.1410436 c 0.0193,0.08338 -0.07908,0.166278 -0.197314,0.166278 l 0,0 z"/></g></g></g></svg>