<svg xmlns="http://www.w3.org/2000/svg" xmlns:svg="http://www.w3.org/2000/svg" id="svg2" width="30" height="30" version="1.1" viewBox="0 0 30 30"><metadata id="metadata27"/><title id="title4">my_pdf_templates_dark</title><desc id="desc6">Created with Sketch.</desc><g id="Page-1" fill="none" fill-rule="evenodd" stroke="none" stroke-width="1"><g id="my_pdf_templates_dark" fill="#778591" style="fill:#fff"><g id="g12" transform="translate(4.000000, 1.000000)" style="fill:#fff"><polygon id="Fill-1" points="11.29 16.442 21.924 5.806 21.924 4.336 20.991 3.403 7.951 16.442" style="fill:#fff"/><polygon id="Fill-2" points="6.715 16.442 20.373 2.785 18.704 1.116 3.378 16.442" style="fill:#fff"/><polygon id="Fill-3" points="21.924 11.616 17.098 16.442 21.924 16.442" style="fill:#fff"/><polygon id="Fill-4" points="21.924 7.043 12.525 16.442 15.862 16.442 21.924 10.381" style="fill:#fff"/><polygon id="Fill-5" points="6.098 0 .076 6.023 .076 9.36 9.436 0" style="fill:#fff"/><polygon id="Fill-6" points="18.086 .498 17.588 0 15.246 0 .076 15.17 .076 16.442 2.141 16.442" style="fill:#fff"/><polygon id="Fill-7" points=".076 0 .076 4.786 4.862 0" style="fill:#fff"/><polygon id="Fill-8" points="10.672 0 .076 10.597 .076 13.933 14.009 0" style="fill:#fff"/><path id="Fill-9" d="M11.8214576,21.481322 C11.7136949,21.3795254 11.578339,21.3109153 11.4120339,21.2747458 C11.2882373,21.2467797 11.0466102,21.2322373 10.6852881,21.2322373 L10.2877966,21.2322373 L10.2877966,24.1325085 L10.9474237,24.1325085 C11.1950169,24.1325085 11.3728814,24.1179661 11.4821356,24.09 C11.6249492,24.0538305 11.7442712,23.9941695 11.8389831,23.9080339 C11.9336949,23.8222712 12.0108814,23.6824407 12.0720339,23.4855593 C12.1316949,23.2905424 12.1622712,23.0224407 12.1622712,22.6831186 C12.1622712,22.3437966 12.1331864,22.0846441 12.0720339,21.9023051 C12.0123729,21.723322 11.9292203,21.582 11.8214576,21.481322 L11.8214576,21.481322 Z" style="fill:#fff"/><path id="Fill-10" d="M7.27566102,21.2628136 C7.16938983,21.2441695 6.9579661,21.2337288 6.63915254,21.2337288 L6.21220339,21.2337288 L6.21220339,22.4761695 L6.69583051,22.4761695 C7.04410169,22.4761695 7.27864407,22.4530508 7.39498305,22.4079322 C7.51169492,22.3628136 7.60491525,22.2912203 7.67166102,22.1924068 C7.73877966,22.0947119 7.77233898,21.9809831 7.77233898,21.8527119 C7.77233898,21.6927458 7.72572881,21.5614915 7.63101695,21.4582034 C7.53779661,21.3534237 7.41847458,21.2877966 7.27566102,21.2628136 L7.27566102,21.2628136 Z" style="fill:#fff"/><path id="Fill-11" d="m 21.924305,17.315864 -21.84861008,0 0,10.650238 21.84861008,0 z" style="fill:#fff"/></g></g></g></svg>