<svg xmlns="http://www.w3.org/2000/svg" xmlns:svg="http://www.w3.org/2000/svg" id="svg2" width="48" height="48" version="1.1" viewBox="0 0 48 48"><metadata id="metadata7"/><g id="layer1" transform="translate(0,-1004.3622)"><path style="fill:none;fill-opacity:1;fill-rule:evenodd;stroke:#98aab8;stroke-width:1;stroke-linecap:butt;stroke-linejoin:miter;stroke-miterlimit:4;stroke-dasharray:none;stroke-opacity:1" id="path3344" d="m 37.527361,1049.7423 c 0.113641,-0.086 -13.559381,-8.3863 -13.417052,-8.3846 0.147293,0 -14.3737694,7.9737 -14.2530699,8.0581 0.1166318,0.082 3.7857439,-15.4872 3.8281289,-15.3513 0.04386,0.1406 -12.0251754,-11.2063 -12.0681838,-11.0654 -0.041559,0.1361 15.8990998,-1.1854 15.7829648,-1.1031 -0.120184,0.085 6.941803,-14.8995 6.794523,-14.8969 -0.142317,0 6.04044,14.7547 5.92628,14.6697 -0.118141,-0.088 16.315445,1.9978 16.267429,1.8585 -0.0464,-0.1345 -12.165902,10.3043 -12.120322,10.1694 0.04717,-0.1395 3.141697,16.1343 3.259302,16.0456 z"/></g></svg>