<svg xmlns="http://www.w3.org/2000/svg" xmlns:xlink="http://www.w3.org/1999/xlink" width="30" height="30" version="1.1" viewBox="0 0 30 30"><title>acc_notes</title><desc>Created with Sketch.</desc><g id="Page-1" fill="none" fill-rule="evenodd" stroke="none" stroke-width="1"><g id="acc_notes" fill="#778591"><g id="Page-1" transform="translate(4.000000, 4.000000)"><polygon id="Fill-1" points="22.061 17.5 21.182 17.5 21.182 4.045 .956 4.045 .956 15.764 .076 15.764 .076 3.177 22.061 3.177"/><polygon id="Fill-2" points="22.061 19.67 .076 19.67 .076 15.764 .956 15.764 .956 18.802 21.182 18.802 21.182 15.764 22.061 15.764"/><polygon id="Fill-3" points="7.111 5.347 7.991 5.347 7.991 .139 7.111 .139"/><polygon id="Fill-4" points="14.147 5.347 15.026 5.347 15.026 .139 14.147 .139"/><polygon id="Fill-5" points="4.034 12.726 18.104 12.726 18.104 11.858 4.034 11.858"/><polygon id="Fill-6" points="4.034 9.254 18.104 9.254 18.104 8.386 4.034 8.386"/><polygon id="Fill-7" points="4.034 16.198 18.104 16.198 18.104 15.33 4.034 15.33"/></g></g></g></svg>