<svg xmlns="http://www.w3.org/2000/svg" xmlns:svg="http://www.w3.org/2000/svg" id="svg2" width="20" height="20" version="1.1" viewBox="0 0 20 20"><metadata id="metadata18"/><title id="title4">acc_contacts</title><desc id="desc6">Created with Sketch.</desc><g id="Page-1" transform="matrix(0.554964,0,0,0.554964,1.5322349,1.4562432)" style="fill:#fff;fill-opacity:1;fill-rule:evenodd;stroke:none"><g id="acc_contacts" style="fill:#fff;fill-opacity:1;stroke:#fff;stroke-width:1.5"><g id="Group" transform="translate(5,5)" style="fill:#fff;fill-opacity:1"><ellipse id="Oval-1" cx="10.524" cy="5.165" d="m 15.761905,5.1650558 c 0,2.8525815 -2.345175,5.1650562 -5.238096,5.1650562 -2.8929197,0 -5.2380949,-2.3124747 -5.2380949,-5.1650562 C 5.2857141,2.3124742 7.6308893,0 10.523809,0 c 2.892921,0 5.238096,2.3124742 5.238096,5.1650558 z" rx="5.238" ry="5.165" style="fill:#fff;fill-opacity:1"/><path id="path14" d="m 19.952381,19.627211 c 2.543256,0 -4.221315,-9.2971 -9.428571,-9.2971 -5.2072567,0 -13.4892039,8.475685 -9.4285719,9.2971 4.060632,0.821415 16.3138869,0 18.8571429,0 z" style="fill:#fff;fill-opacity:1"/></g></g></g></svg>