<svg xmlns="http://www.w3.org/2000/svg" xmlns:svg="http://www.w3.org/2000/svg" id="svg2" width="32" height="32" version="1.1" viewBox="0 0 32 32"><metadata id="metadata24"/><title id="title4">sb_add</title><desc id="desc6">Created with Sketch.</desc><g id="Page-1" transform="translate(0,-80)" style="fill:none;stroke:none"><g id="sb_add"><g id="g3001" transform="translate(0,80)"><ellipse style="stroke:#f5f5f5" id="Oval-7" cx="16" cy="16" d="M 31,16 C 31,24.284271 24.284271,31 16,31 7.7157288,31 1,24.284271 1,16 1,7.7157288 7.7157288,1 16,1 24.284271,1 31,7.7157288 31,16 z" rx="15" ry="15"/><polygon style="fill:#f5f5f5" id="polygon20" points="9.19 17.146 9.19 14.038 14.342 14.038 14.342 8.494 17.87 8.494 17.87 14.038 23.05 14.038 23.05 17.146 17.87 17.146 17.87 22.718 14.342 22.718 14.342 17.146" transform="matrix(0.70710678,0.70710678,-0.70710678,0.70710678,15.756547,-6.8276697)"/></g></g></g></svg>