<svg xmlns="http://www.w3.org/2000/svg" xmlns:svg="http://www.w3.org/2000/svg" id="svg2" width="20" height="20" version="1.1" viewBox="0 0 20 20"><metadata id="metadata27"/><title id="title4">my_pdf_templates_dark</title><desc id="desc6">Created with Sketch.</desc><g id="Page-1" transform="translate(0,-10)" style="fill:none;stroke:none"><g id="my_pdf_templates_dark" transform="matrix(0.63384882,0,0,0.63384882,0.49226773,10.605972)" style="fill:#fff"><g id="g12" transform="translate(4,1)" style="fill:#fff"><polygon id="Fill-1" points="20.991 3.403 7.951 16.442 11.29 16.442 21.924 5.806 21.924 4.336" style="fill:#fff"/><polygon id="Fill-2" points="6.715 16.442 20.373 2.785 18.704 1.116 3.378 16.442" style="fill:#fff"/><polygon id="Fill-3" points="21.924 16.442 21.924 11.616 17.098 16.442" style="fill:#fff"/><polygon id="Fill-4" points="21.924 7.043 12.525 16.442 15.862 16.442 21.924 10.381" style="fill:#fff"/><polygon id="Fill-5" points="6.098 0 .076 6.023 .076 9.36 9.436 0" style="fill:#fff"/><polygon id="Fill-6" points="15.246 0 .076 15.17 .076 16.442 2.141 16.442 18.086 .498 17.588 0" style="fill:#fff"/><polygon id="Fill-7" points="4.862 0 .076 0 .076 4.786" style="fill:#fff"/><polygon id="Fill-8" points="10.672 0 .076 10.597 .076 13.933 14.009 0" style="fill:#fff"/><path id="Fill-9" d="m 11.821458,21.481322 c -0.107763,-0.101797 -0.243119,-0.170407 -0.409424,-0.206576 -0.123797,-0.02797 -0.365424,-0.04251 -0.726746,-0.04251 l -0.397491,0 0,2.900271 0.659627,0 c 0.247593,0 0.425457,-0.01454 0.534712,-0.04251 0.142813,-0.03617 0.262135,-0.09583 0.356847,-0.181966 0.09471,-0.08576 0.171898,-0.225593 0.233051,-0.422475 0.05966,-0.195017 0.09024,-0.463118 0.09024,-0.80244 0,-0.339322 -0.02909,-0.598475 -0.09024,-0.780814 -0.05966,-0.17898 -0.142814,-0.320302 -0.250576,-0.42098 l 0,0 z" style="fill:#fff"/><path id="Fill-10" d="M 7.275661,21.262814 C 7.1693898,21.24417 6.9579661,21.233729 6.6391525,21.233729 l -0.4269491,0 0,1.24244 0.4836271,0 c 0.3482712,0 0.5828136,-0.02312 0.6991525,-0.06824 0.1167119,-0.04512 0.2099323,-0.116712 0.276678,-0.215525 0.067119,-0.09769 0.100678,-0.211424 0.100678,-0.339695 0,-0.159966 -0.04661,-0.291221 -0.1413221,-0.394509 -0.09322,-0.104779 -0.2125423,-0.170406 -0.3553559,-0.195389 l 0,0 z" style="fill:#fff"/><path id="Fill-11" d="m 21.924305,17.315864 -21.84861008,0 0,10.650238 21.84861008,0 z" style="fill:#fff"/></g></g></g></svg>