<svg xmlns="http://www.w3.org/2000/svg" xmlns:xlink="http://www.w3.org/1999/xlink" width="28" height="28" version="1.1" viewBox="0 0 28 28"><title>admin_scheduler</title><desc>Created with Sketch.</desc><g id="Page-1" fill="none" fill-rule="evenodd" stroke="none" stroke-width="1"><g id="admin_scheduler"><circle id="Oval-7" cx="14" cy="14" r="13" stroke="#534D64"/><g id="Page-1" fill="#5C566C" transform="translate(6.519531, 7.000000)"><path id="Fill-1" d="M3.37304348,0.163043478 C1.6023913,0.163043478 0.163043478,1.6023913 0.163043478,3.37304348 L0.163043478,11.6269565 C0.163043478,13.3976087 1.6023913,14.8369565 3.37304348,14.8369565 L11.6269565,14.8369565 C13.3976087,14.8369565 14.8369565,13.3976087 14.8369565,11.6269565 L14.8369565,3.37304348 C14.8369565,1.6023913 13.3976087,0.163043478 11.6269565,0.163043478 L3.37304348,0.163043478 Z M3.37304348,1.08021739 L11.6269565,1.08021739 C12.905,1.08021739 13.9197826,2.095 13.9197826,3.37304348 L13.9197826,11.6269565 C13.9197826,12.905 12.905,13.9197826 11.6269565,13.9197826 L3.37304348,13.9197826 C2.095,13.9197826 1.08021739,12.905 1.08021739,11.6269565 L1.08021739,3.37304348 C1.08021739,2.095 2.095,1.08021739 3.37304348,1.08021739 L3.37304348,1.08021739 Z"/><polygon id="Fill-2" points="7.042 2.456 7.042 8.188 10.893 11.077 11.444 10.343 7.958 7.729 7.958 2.456"/></g></g></g></svg>