<svg xmlns="http://www.w3.org/2000/svg" xmlns:xlink="http://www.w3.org/1999/xlink" width="28" height="28" version="1.1" viewBox="0 0 28 28"><title>admin_upgrade_wizard</title><desc>Created with Sketch.</desc><g id="Page-1" fill="none" fill-rule="evenodd" stroke="none" stroke-width="1"><g id="admin_upgrade_wizard"><circle id="Oval-7" cx="14" cy="14" r="13" stroke="#534D64"/><g id="Page-1" fill="#5C566C" transform="translate(7.519531, 6.000000)"><polygon id="Fill-1" points="5.847 2.049 5.847 16.149 6.849 16.149 6.849 2.049 7.986 3.185 8.703 2.467 6.348 .111 3.993 2.467 4.71 3.185"/><polygon id="Fill-2" points="8.687 10.552 9.823 9.416 9.823 13.109 10.842 13.109 10.842 9.416 11.977 10.552 12.696 9.834 10.324 7.478 7.968 9.834"/><polygon id="Fill-3" points=".719 7.512 1.854 6.376 1.854 13.109 2.873 13.109 2.873 6.376 4.009 7.512 4.728 6.794 2.372 4.422 0 6.794"/></g></g></g></svg>