<svg xmlns="http://www.w3.org/2000/svg" xmlns:svg="http://www.w3.org/2000/svg" id="svg2" width="30" height="30" version="1.1" viewBox="0 0 30 30"><metadata id="metadata18"/><title id="title4">acc_contacts</title><desc id="desc6">Created with Sketch.</desc><g id="Page-1" fill="none" fill-rule="evenodd" stroke="none" stroke-width="1" style="fill:#778591;fill-opacity:1"><g id="acc_contacts" stroke="#FFF" stroke-width="1.5" style="fill:#778591;fill-opacity:1"><g id="Group" transform="translate(5.000000, 5.000000)" style="fill:#778591;fill-opacity:1"><ellipse id="Oval-1" cx="10.524" cy="5.165" d="m 15.761905,5.1650558 c 0,2.8525815 -2.345175,5.1650562 -5.238096,5.1650562 -2.8929197,0 -5.2380949,-2.3124747 -5.2380949,-5.1650562 C 5.2857141,2.3124742 7.6308893,0 10.523809,0 c 2.892921,0 5.238096,2.3124742 5.238096,5.1650558 z" rx="5.238" ry="5.165" style="fill:#778591;fill-opacity:1"/><path id="path14" d="M19.952381,19.627211 C22.4956369,19.6272108 15.7310657,10.3301111 10.5238095,10.3301111 C5.31655331,10.3301111 -2.96539393,18.8057962 1.0952381,19.627211 C5.15587012,20.4486259 17.409125,19.6272112 19.952381,19.627211 Z" style="fill:#778591;fill-opacity:1"/></g></g></g><path style="fill:#fff;fill-opacity:1;stroke:none" id="path3770" d="m 29.872881,24.915255 a 5.7203388,5.7203388 0 1 1 -11.440678,0 5.7203388,5.7203388 0 1 1 11.440678,0 z" transform="matrix(0.87777778,0,0,0.87777778,3.2697741,2.4731639)"/><polygon style="fill:#534d64" id="polygon18" points="17.87 48.494 17.87 54.038 23.05 54.038 23.05 57.146 17.87 57.146 17.87 62.718 14.342 62.718 14.342 57.146 9.19 57.146 9.19 54.038 14.342 54.038 14.342 48.494" transform="matrix(0.55180817,0,0,0.58402069,16.274344,-7.6869189)"/></svg>